<svg xmlns="http://www.w3.org/2000/svg" width="1120" height="520" viewBox="0 0 1120 520" role="img" aria-labelledby="title desc">
<title id="title">源码理解证据</title><desc id="desc">能修改并验证才算追通</desc>
<defs><marker id="arrow" markerWidth="8" markerHeight="8" refX="7" refY="4" orient="auto"><path d="M0,0 L8,4 L0,8 Z" fill="#6f746f"/></marker></defs>
<rect width="1120" height="520" rx="34" fill="#f5f1e8"/>
<text x="48" y="78" class="title">源码理解证据</text>
<text x="48" y="126" class="subtitle">能修改并验证才算追通</text>
<path d="M120 295 H1000" class="axis" marker-end="url(#arrow)"/><circle cx="150" cy="295" r="15" fill="#c76b43"/><path d="M150 295 V240" class="thin"/><rect x="42" y="192" width="216" height="58" rx="14" class="box alt0"/><text x="150" y="228" text-anchor="middle" class="small">调用图</text><circle cx="425" cy="295" r="15" fill="#c76b43"/><path d="M425 295 V350" class="thin"/><rect x="317" y="350" width="216" height="58" rx="14" class="box alt1"/><text x="425" y="387" text-anchor="middle" class="small">张量 / 状态</text><circle cx="700" cy="295" r="15" fill="#c76b43"/><path d="M700 295 V240" class="thin"/><rect x="592" y="192" width="216" height="58" rx="14" class="box alt0"/><text x="700" y="228" text-anchor="middle" class="small">最小复现</text><circle cx="975" cy="295" r="15" fill="#c76b43"/><path d="M975 295 V350" class="thin"/><rect x="867" y="350" width="216" height="58" rx="14" class="box alt1"/><text x="975" y="387" text-anchor="middle" class="small">回归测试</text>
<text x="48" y="478" class="hint">图形承担关系表达；结合正文中的例子与问题阅读。</text>
<style>.title{font:700 38px -apple-system,BlinkMacSystemFont,"PingFang SC",sans-serif;fill:#24231f}.subtitle{font:24px -apple-system,BlinkMacSystemFont,"PingFang SC",sans-serif;fill:#68665f}.node{font:600 22px -apple-system,BlinkMacSystemFont,"PingFang SC",sans-serif;fill:#2c2a25}.small{font:600 19px -apple-system,BlinkMacSystemFont,"PingFang SC",sans-serif;fill:#2c2a25}.label{font:700 20px -apple-system,BlinkMacSystemFont,"PingFang SC",sans-serif;fill:#6b4939}.center{font:700 22px -apple-system,BlinkMacSystemFont,"PingFang SC",sans-serif;fill:white}.hint{font:20px -apple-system,BlinkMacSystemFont,"PingFang SC",sans-serif;fill:#79756c}.box{fill:#fffaf2;stroke:#c76b43;stroke-width:3}.alt1{fill:#e9f0eb;stroke:#66806d}.panelA{fill:#fff4e9;stroke:#c76b43;stroke-width:3}.panelB{fill:#e9f0eb;stroke:#66806d;stroke-width:3}.line{stroke:#6f746f;stroke-width:4;fill:none}.thin{stroke:#9a8f82;stroke-width:2}.axis{stroke:#8b8175;stroke-width:3;fill:none}</style>
</svg>